<mxfile host="app.diagrams.net" modified="2020-08-07T08:29:55.719Z" agent="5.0 (Macintosh; Intel Mac OS X 10_15_5) AppleWebKit/537.36 (KHTML, like Gecko) Chrome/84.0.4147.105 Safari/537.36" etag="jQdmlWBZx0NlhWXE4wnG" version="13.5.8" type="github">
  <diagram id="X1IY7xbHO4pjtUa8GyIr" name="Page-1">
    <mxGraphModel dx="2066" dy="1105" grid="1" gridSize="10" guides="1" tooltips="1" connect="1" arrows="1" fold="1" page="1" pageScale="1" pageWidth="827" pageHeight="1169" math="0" shadow="0">
      <root>
        <mxCell id="0" />
        <mxCell id="1" parent="0" />
        <mxCell id="yP8EOBw4YisGJ323p4iA-1" value="" style="rounded=0;whiteSpace=wrap;html=1;" vertex="1" parent="1">
          <mxGeometry x="470" y="240" width="120" height="300" as="geometry" />
        </mxCell>
        <mxCell id="yP8EOBw4YisGJ323p4iA-2" value="Process 1" style="rounded=0;whiteSpace=wrap;html=1;fillColor=#dae8fc;strokeColor=#6c8ebf;" vertex="1" parent="1">
          <mxGeometry x="485" y="260" width="90" height="80" as="geometry" />
        </mxCell>
        <mxCell id="yP8EOBw4YisGJ323p4iA-5" style="edgeStyle=orthogonalEdgeStyle;rounded=0;orthogonalLoop=1;jettySize=auto;html=1;entryX=1;entryY=0.5;entryDx=0;entryDy=0;curved=1;exitX=1;exitY=0.5;exitDx=0;exitDy=0;strokeWidth=2;strokeColor=#FF0000;" edge="1" parent="1" source="yP8EOBw4YisGJ323p4iA-3" target="yP8EOBw4YisGJ323p4iA-4">
          <mxGeometry relative="1" as="geometry" />
        </mxCell>
        <mxCell id="yP8EOBw4YisGJ323p4iA-3" value="Process 2" style="rounded=0;whiteSpace=wrap;html=1;fillColor=#d5e8d4;strokeColor=#82b366;" vertex="1" parent="1">
          <mxGeometry x="485" y="430" width="90" height="80" as="geometry" />
        </mxCell>
        <mxCell id="yP8EOBw4YisGJ323p4iA-6" style="edgeStyle=orthogonalEdgeStyle;curved=1;rounded=0;orthogonalLoop=1;jettySize=auto;html=1;entryX=1;entryY=0.5;entryDx=0;entryDy=0;strokeColor=#FF0000;strokeWidth=2;" edge="1" parent="1" target="yP8EOBw4YisGJ323p4iA-2">
          <mxGeometry relative="1" as="geometry">
            <mxPoint x="580" y="380" as="sourcePoint" />
            <Array as="points">
              <mxPoint x="595" y="380" />
              <mxPoint x="595" y="300" />
            </Array>
          </mxGeometry>
        </mxCell>
        <mxCell id="yP8EOBw4YisGJ323p4iA-4" value="Shared&amp;nbsp;&lt;br&gt;Memory" style="rounded=0;whiteSpace=wrap;html=1;fillColor=#e1d5e7;strokeColor=#9673a6;" vertex="1" parent="1">
          <mxGeometry x="485" y="360" width="90" height="40" as="geometry" />
        </mxCell>
      </root>
    </mxGraphModel>
  </diagram>
</mxfile>
